<svg xmlns="http://www.w3.org/2000/svg" aria-hidden="true" style="position:absolute;width:0;height:0;overflow:hidden">
    <defs>
        <symbol id="icon-Vector" viewBox="0 0 40 32">
            <path fill="#021cff" d="M32.886 8.421c-1.223-2.81-3.334-5.142-6.009-6.638s-5.767-2.074-8.802-1.644-5.845 1.842-8.001 4.021c-2.155 2.179-3.536 5.005-3.932 8.045-1.909 0.457-3.583 1.599-4.705 3.209s-1.614 3.576-1.381 5.525c0.232 1.949 1.172 3.744 2.641 5.046s3.365 2.018 5.327 2.014c0.531 0 1.040-0.211 1.415-0.586s0.586-0.885 0.586-1.415c0-0.531-0.211-1.040-0.586-1.415s-0.885-0.586-1.415-0.586c-1.062 0-2.080-0.422-2.831-1.173s-1.173-1.769-1.173-2.831 0.422-2.080 1.173-2.831c0.751-0.751 1.769-1.173 2.831-1.173 0.531 0 1.040-0.211 1.415-0.586s0.586-0.885 0.586-1.415c0.005-2.368 0.849-4.657 2.383-6.461s3.656-3.006 5.992-3.392c2.336-0.386 4.733 0.068 6.766 1.281s3.569 3.109 4.337 5.349c0.114 0.344 0.32 0.65 0.595 0.887s0.609 0.393 0.966 0.455c1.333 0.252 2.542 0.948 3.429 1.975s1.4 2.324 1.456 3.679c0.056 1.356-0.349 2.69-1.149 3.787s-1.947 1.889-3.255 2.25c-0.515 0.133-0.956 0.465-1.226 0.923s-0.348 1.005-0.215 1.52c0.133 0.515 0.465 0.956 0.923 1.226s1.005 0.348 1.52 0.215c2.107-0.557 3.974-1.786 5.319-3.5s2.093-3.821 2.132-6c0.038-2.179-0.635-4.31-1.918-6.071s-3.106-3.055-5.192-3.686v0zM21.456 12.565c-0.19-0.182-0.415-0.325-0.661-0.42-0.487-0.2-1.034-0.2-1.521 0-0.246 0.095-0.47 0.238-0.661 0.42l-6.005 6.005c-0.377 0.377-0.589 0.888-0.589 1.421s0.212 1.044 0.589 1.421c0.377 0.377 0.888 0.589 1.421 0.589s1.044-0.212 1.421-0.589l2.582-2.602v11.19c0 0.531 0.211 1.040 0.586 1.415s0.885 0.586 1.415 0.586c0.531 0 1.040-0.211 1.415-0.586s0.586-0.885 0.586-1.415v-11.19l2.582 2.602c0.186 0.188 0.407 0.337 0.651 0.438s0.506 0.154 0.77 0.154c0.264 0 0.526-0.052 0.77-0.154s0.465-0.251 0.651-0.438c0.188-0.186 0.337-0.408 0.438-0.651s0.154-0.506 0.154-0.77c0-0.264-0.052-0.526-0.154-0.77s-0.251-0.465-0.438-0.651l-6.005-6.005z"></path>
        </symbol>
        <symbol id="icon-logo" viewBox="0 0 229 32">
            <path fill="#021cff"  d="M28.8 11.104c-0.017-0.147-0.049-0.292-0.096-0.432v-0.144c-0.077-0.165-0.18-0.316-0.304-0.448l-9.6-9.6c-0.132-0.124-0.284-0.227-0.448-0.304-0.048-0.007-0.096-0.007-0.144 0-0.163-0.093-0.342-0.153-0.528-0.176h-6.48c-1.273 0-2.494 0.506-3.394 1.406s-1.406 2.121-1.406 3.394v1.6h-1.6c-1.273 0-2.494 0.506-3.394 1.406s-1.406 2.121-1.406 3.394v16c0 1.273 0.506 2.494 1.406 3.394s2.121 1.406 3.394 1.406h12.8c1.273 0 2.494-0.506 3.394-1.406s1.406-2.121 1.406-3.394v-1.6h1.6c1.273 0 2.494-0.506 3.394-1.406s1.406-2.121 1.406-3.394v-9.6c0 0 0 0 0-0.096zM19.2 5.456l4.144 4.144h-2.544c-0.424 0-0.831-0.169-1.131-0.469s-0.469-0.707-0.469-1.131v-2.544zM19.2 27.2c0 0.424-0.169 0.831-0.469 1.131s-0.707 0.469-1.131 0.469h-12.8c-0.424 0-0.831-0.169-1.131-0.469s-0.469-0.707-0.469-1.131v-16c0-0.424 0.169-0.831 0.469-1.131s0.707-0.469 1.131-0.469h1.6v11.2c0 1.273 0.506 2.494 1.406 3.394s2.121 1.406 3.394 1.406h8v1.6zM25.6 20.8c0 0.424-0.169 0.831-0.469 1.131s-0.707 0.469-1.131 0.469h-12.8c-0.424 0-0.831-0.169-1.131-0.469s-0.469-0.707-0.469-1.131v-16c0-0.424 0.169-0.831 0.469-1.131s0.707-0.469 1.131-0.469h4.8v4.8c0 1.273 0.506 2.494 1.406 3.394s2.121 1.406 3.394 1.406h4.8v8z"></path>
            <path fill="#021cff"  d="M46.528 27.52c-1.493 0-2.805-0.277-3.936-0.832-1.109-0.576-1.973-1.376-2.592-2.4-0.597-1.045-0.896-2.272-0.896-3.68v-10.176c0-1.429 0.299-2.656 0.896-3.68 0.619-1.024 1.483-1.813 2.592-2.368 1.131-0.576 2.443-0.864 3.936-0.864 1.515 0 2.816 0.288 3.904 0.864 1.109 0.555 1.973 1.344 2.592 2.368s0.928 2.251 0.928 3.68h-4.032c0-1.109-0.299-1.952-0.896-2.528-0.576-0.576-1.408-0.864-2.496-0.864s-1.931 0.288-2.528 0.864c-0.597 0.576-0.896 1.408-0.896 2.496v10.208c0 1.088 0.299 1.931 0.896 2.528 0.597 0.576 1.44 0.864 2.528 0.864s1.92-0.288 2.496-0.864c0.597-0.597 0.896-1.44 0.896-2.528h4.032c0 1.387-0.309 2.603-0.928 3.648s-1.483 1.856-2.592 2.432c-1.088 0.555-2.389 0.832-3.904 0.832zM65.588 27.488c-1.493 0-2.795-0.277-3.904-0.832-1.088-0.576-1.941-1.376-2.56-2.4-0.597-1.045-0.896-2.272-0.896-3.68v-4.352c0-1.408 0.299-2.624 0.896-3.648 0.619-1.045 1.472-1.845 2.56-2.4 1.109-0.576 2.411-0.864 3.904-0.864 1.515 0 2.816 0.288 3.904 0.864 1.088 0.555 1.931 1.355 2.528 2.4 0.619 1.024 0.928 2.229 0.928 3.616v4.384c0 1.408-0.309 2.635-0.928 3.68-0.597 1.024-1.44 1.824-2.528 2.4-1.088 0.555-2.389 0.832-3.904 0.832zM65.588 24c1.067 0 1.888-0.288 2.464-0.864 0.597-0.597 0.896-1.451 0.896-2.56v-4.352c0-1.131-0.299-1.984-0.896-2.56-0.576-0.576-1.397-0.864-2.464-0.864-1.045 0-1.867 0.288-2.464 0.864s-0.896 1.429-0.896 2.56v4.352c0 1.109 0.299 1.963 0.896 2.56 0.597 0.576 1.419 0.864 2.464 0.864zM77.639 27.2v-17.6h3.904v3.36h1.088l-1.088 0.928c0-1.451 0.416-2.581 1.248-3.392 0.853-0.811 2.016-1.216 3.488-1.216 1.728 0 3.104 0.576 4.128 1.728 1.045 1.152 1.568 2.699 1.568 4.64v11.552h-4v-11.136c0-1.067-0.277-1.888-0.832-2.464s-1.333-0.864-2.336-0.864c-0.981 0-1.76 0.299-2.336 0.896-0.555 0.597-0.832 1.451-0.832 2.56v11.008h-4zM101.403 27.2l-5.792-17.6h4.096l3.36 10.688c0.192 0.64 0.373 1.301 0.544 1.984 0.192 0.683 0.331 1.227 0.416 1.632 0.107-0.405 0.245-0.949 0.416-1.632s0.341-1.333 0.512-1.952l3.296-10.72h4.064l-5.76 17.6h-5.152zM123.182 27.52c-1.493 0-2.795-0.288-3.904-0.864s-1.973-1.376-2.592-2.4c-0.597-1.045-0.896-2.261-0.896-3.648v-4.416c0-1.387 0.299-2.592 0.896-3.616 0.619-1.045 1.483-1.856 2.592-2.432s2.411-0.864 3.904-0.864c1.472 0 2.752 0.288 3.84 0.864 1.109 0.576 1.963 1.387 2.56 2.432 0.619 1.024 0.928 2.229 0.928 3.616v3.168h-10.848v1.248c0 1.237 0.299 2.176 0.896 2.816 0.597 0.619 1.483 0.928 2.656 0.928 0.896 0 1.621-0.149 2.176-0.448 0.555-0.32 0.907-0.779 1.056-1.376h3.936c-0.299 1.515-1.109 2.731-2.432 3.648-1.301 0.896-2.891 1.344-4.768 1.344zM126.638 17.12v-0.96c0-1.216-0.288-2.144-0.864-2.784-0.576-0.661-1.44-0.992-2.592-0.992s-2.027 0.331-2.624 0.992c-0.597 0.661-0.896 1.6-0.896 2.816v0.672l7.264-0.064-0.288 0.32zM135.745 27.2v-17.6h3.776v3.36h0.992l-1.184 2.048c0-1.899 0.427-3.328 1.28-4.288s2.112-1.44 3.776-1.44c1.899 0 3.392 0.587 4.48 1.76s1.632 2.795 1.632 4.864v1.28h-4.192v-0.992c0-1.131-0.299-2.005-0.896-2.624-0.576-0.619-1.376-0.928-2.4-0.928-1.045 0-1.856 0.309-2.432 0.928-0.555 0.619-0.832 1.493-0.832 2.624v11.008h-4zM163.445 27.2c-1.685 0-3.008-0.469-3.968-1.408-0.939-0.939-1.408-2.229-1.408-3.872v-8.704h-4.768v-3.616h4.768v-4.96h4.032v4.96h6.752v3.616h-6.752v8.704c0 1.109 0.544 1.664 1.632 1.664h4.8v3.616h-5.088zM180.712 27.52c-0.917 0-1.653-0.267-2.208-0.8-0.533-0.533-0.8-1.259-0.8-2.176s0.267-1.643 0.8-2.176c0.555-0.555 1.291-0.832 2.208-0.832 0.918 0 1.643 0.277 2.176 0.832 0.555 0.533 0.832 1.259 0.832 2.176s-0.277 1.643-0.832 2.176c-0.533 0.533-1.258 0.8-2.176 0.8zM192.093 27.2v-23.36h4.736l2.272 7.424c0.234 0.747 0.426 1.429 0.576 2.048 0.149 0.619 0.245 1.067 0.288 1.344 0.042-0.277 0.138-0.725 0.288-1.344 0.149-0.619 0.33-1.301 0.544-2.048l2.176-7.424h4.736v23.36h-3.744v-7.264c0-1.067 0.032-2.229 0.096-3.488s0.138-2.517 0.224-3.776c0.085-1.259 0.181-2.453 0.288-3.584 0.128-1.131 0.234-2.123 0.32-2.976l-3.136 11.040h-3.648l-3.232-11.040c0.106 0.811 0.213 1.771 0.32 2.88 0.106 1.088 0.202 2.261 0.288 3.52 0.106 1.237 0.192 2.496 0.256 3.776s0.096 2.496 0.096 3.648v7.264h-3.744zM219.12 27.52c-1.494 0-2.795-0.288-3.904-0.864-1.11-0.576-1.974-1.376-2.592-2.4-0.598-1.045-0.896-2.261-0.896-3.648v-4.416c0-1.387 0.298-2.592 0.896-3.616 0.618-1.045 1.482-1.856 2.592-2.432 1.109-0.576 2.41-0.864 3.904-0.864 1.472 0 2.752 0.288 3.84 0.864 1.109 0.576 1.962 1.387 2.56 2.432 0.618 1.024 0.928 2.229 0.928 3.616v3.168h-10.848v1.248c0 1.237 0.298 2.176 0.896 2.816 0.597 0.619 1.482 0.928 2.656 0.928 0.896 0 1.621-0.149 2.176-0.448 0.554-0.32 0.906-0.779 1.056-1.376h3.936c-0.299 1.515-1.11 2.731-2.432 3.648-1.302 0.896-2.891 1.344-4.768 1.344zM222.576 17.12v-0.96c0-1.216-0.288-2.144-0.864-2.784-0.576-0.661-1.44-0.992-2.592-0.992s-2.027 0.331-2.624 0.992c-0.598 0.661-0.896 1.6-0.896 2.816v0.672l7.264-0.064-0.288 0.32z"></path>
</symbol>
    </defs>
</svg>