<svg xmlns="http://www.w3.org/2000/svg" aria-hidden="true" style="position:absolute;width:0;height:0;overflow:hidden">
    <defs>
        <symbol id="icon-Vector" viewBox="0 0 40 32">
            <path fill="#021cff" d="M32.886 8.421c-1.223-2.81-3.334-5.142-6.009-6.638s-5.767-2.074-8.802-1.644-5.845 1.842-8.001 4.021c-2.155 2.179-3.536 5.005-3.932 8.045-1.909 0.457-3.583 1.599-4.705 3.209s-1.614 3.576-1.381 5.525c0.232 1.949 1.172 3.744 2.641 5.046s3.365 2.018 5.327 2.014c0.531 0 1.040-0.211 1.415-0.586s0.586-0.885 0.586-1.415c0-0.531-0.211-1.040-0.586-1.415s-0.885-0.586-1.415-0.586c-1.062 0-2.080-0.422-2.831-1.173s-1.173-1.769-1.173-2.831 0.422-2.080 1.173-2.831c0.751-0.751 1.769-1.173 2.831-1.173 0.531 0 1.040-0.211 1.415-0.586s0.586-0.885 0.586-1.415c0.005-2.368 0.849-4.657 2.383-6.461s3.656-3.006 5.992-3.392c2.336-0.386 4.733 0.068 6.766 1.281s3.569 3.109 4.337 5.349c0.114 0.344 0.32 0.65 0.595 0.887s0.609 0.393 0.966 0.455c1.333 0.252 2.542 0.948 3.429 1.975s1.4 2.324 1.456 3.679c0.056 1.356-0.349 2.69-1.149 3.787s-1.947 1.889-3.255 2.25c-0.515 0.133-0.956 0.465-1.226 0.923s-0.348 1.005-0.215 1.52c0.133 0.515 0.465 0.956 0.923 1.226s1.005 0.348 1.52 0.215c2.107-0.557 3.974-1.786 5.319-3.5s2.093-3.821 2.132-6c0.038-2.179-0.635-4.31-1.918-6.071s-3.106-3.055-5.192-3.686v0zM21.456 12.565c-0.19-0.182-0.415-0.325-0.661-0.42-0.487-0.2-1.034-0.2-1.521 0-0.246 0.095-0.47 0.238-0.661 0.42l-6.005 6.005c-0.377 0.377-0.589 0.888-0.589 1.421s0.212 1.044 0.589 1.421c0.377 0.377 0.888 0.589 1.421 0.589s1.044-0.212 1.421-0.589l2.582-2.602v11.19c0 0.531 0.211 1.040 0.586 1.415s0.885 0.586 1.415 0.586c0.531 0 1.040-0.211 1.415-0.586s0.586-0.885 0.586-1.415v-11.19l2.582 2.602c0.186 0.188 0.407 0.337 0.651 0.438s0.506 0.154 0.77 0.154c0.264 0 0.526-0.052 0.77-0.154s0.465-0.251 0.651-0.438c0.188-0.186 0.337-0.408 0.438-0.651s0.154-0.506 0.154-0.77c0-0.264-0.052-0.526-0.154-0.77s-0.251-0.465-0.438-0.651l-6.005-6.005z"></path>
        </symbol>
    </defs>
</svg>